<mxfile host="Electron" modified="2024-12-06T15:24:50.375Z" agent="Mozilla/5.0 (Macintosh; Intel Mac OS X 10_15_7) AppleWebKit/537.36 (KHTML, like Gecko) draw.io/24.6.4 Chrome/124.0.6367.207 Electron/30.0.6 Safari/537.36" etag="i4-vwHLLkuS_ODVWnNVc" version="24.6.4" type="device">
  <diagram name="Page-1" id="Pp8RnbZCFptkfvqOG2bc">
    <mxGraphModel dx="1434" dy="781" grid="1" gridSize="10" guides="1" tooltips="1" connect="1" arrows="1" fold="1" page="1" pageScale="1" pageWidth="827" pageHeight="583" math="0" shadow="0">
      <root>
        <mxCell id="0" />
        <mxCell id="1" parent="0" />
        <mxCell id="Yegjp9foNtBewu_qM6rg-22" value="" style="endArrow=none;html=1;rounded=0;endFill=0;startArrow=classic;startFill=1;" edge="1" parent="1" source="Yegjp9foNtBewu_qM6rg-12">
          <mxGeometry width="50" height="50" relative="1" as="geometry">
            <mxPoint x="390" y="160" as="sourcePoint" />
            <mxPoint x="390" y="20" as="targetPoint" />
          </mxGeometry>
        </mxCell>
        <mxCell id="Yegjp9foNtBewu_qM6rg-23" value="Incoming traffic" style="edgeLabel;html=1;align=center;verticalAlign=middle;resizable=0;points=[];" vertex="1" connectable="0" parent="Yegjp9foNtBewu_qM6rg-22">
          <mxGeometry x="0.7348" y="-2" relative="1" as="geometry">
            <mxPoint as="offset" />
          </mxGeometry>
        </mxCell>
        <mxCell id="k6I1WOAuYv6A5rx1H5Q7-6" value="" style="rounded=1;whiteSpace=wrap;html=1;dashed=1;fillColor=none;fontFamily=Tahoma;labelPosition=center;verticalLabelPosition=top;align=center;verticalAlign=bottom;fontSize=24;sketch=1;curveFitting=1;jiggle=2;" parent="1" vertex="1">
          <mxGeometry x="170" y="60" width="430" height="510" as="geometry" />
        </mxCell>
        <mxCell id="k6I1WOAuYv6A5rx1H5Q7-33" value="Shared Filesystem" style="sketch=1;aspect=fixed;pointerEvents=1;shadow=0;dashed=0;html=1;strokeColor=#23445d;labelPosition=center;verticalLabelPosition=bottom;verticalAlign=top;align=center;fillColor=#bac8d3;shape=mxgraph.mscae.enterprise.shared_folder;fontFamily=Tahoma;curveFitting=1;jiggle=2;" parent="1" vertex="1">
          <mxGeometry x="520" y="452" width="43" height="50" as="geometry" />
        </mxCell>
        <mxCell id="Yegjp9foNtBewu_qM6rg-1" value="" style="rounded=0;orthogonalLoop=1;jettySize=auto;html=1;sketch=1;curveFitting=1;jiggle=2;" edge="1" parent="1" source="Yegjp9foNtBewu_qM6rg-10" target="k6I1WOAuYv6A5rx1H5Q7-33">
          <mxGeometry relative="1" as="geometry" />
        </mxCell>
        <mxCell id="k6I1WOAuYv6A5rx1H5Q7-36" value="&amp;nbsp;- 1x Cloud node" style="sketch=1;pointerEvents=1;shadow=0;dashed=0;html=1;strokeColor=none;labelPosition=right;verticalLabelPosition=middle;verticalAlign=middle;outlineConnect=0;align=left;shape=mxgraph.office.concepts.node_generic;fillColor=#2072B8;fontFamily=Tahoma;curveFitting=1;jiggle=2;" parent="1" vertex="1">
          <mxGeometry x="620" y="300" width="35" height="38.5" as="geometry" />
        </mxCell>
        <mxCell id="k6I1WOAuYv6A5rx1H5Q7-52" style="rounded=0;orthogonalLoop=1;jettySize=auto;html=1;sketch=1;curveFitting=1;jiggle=2;" parent="1" source="k6I1WOAuYv6A5rx1H5Q7-43" target="k6I1WOAuYv6A5rx1H5Q7-35" edge="1">
          <mxGeometry relative="1" as="geometry" />
        </mxCell>
        <mxCell id="k6I1WOAuYv6A5rx1H5Q7-53" style="rounded=0;orthogonalLoop=1;jettySize=auto;html=1;sketch=1;curveFitting=1;jiggle=2;" parent="1" source="k6I1WOAuYv6A5rx1H5Q7-43" target="k6I1WOAuYv6A5rx1H5Q7-39" edge="1">
          <mxGeometry relative="1" as="geometry" />
        </mxCell>
        <mxCell id="k6I1WOAuYv6A5rx1H5Q7-43" value="Query Engine&lt;div&gt;Spark/Trino&lt;/div&gt;" style="sketch=1;pointerEvents=1;shadow=0;dashed=0;html=1;strokeColor=none;labelPosition=left;verticalLabelPosition=middle;verticalAlign=middle;outlineConnect=0;align=right;shape=mxgraph.office.concepts.node_generic;fillColor=#2072B8;fontFamily=Tahoma;spacingLeft=0;spacingRight=5;curveFitting=1;jiggle=2;" parent="1" vertex="1">
          <mxGeometry x="320" y="348.5" width="46" height="52" as="geometry" />
        </mxCell>
        <mxCell id="Yegjp9foNtBewu_qM6rg-7" style="rounded=0;orthogonalLoop=1;jettySize=auto;html=1;strokeColor=none;sketch=1;curveFitting=1;jiggle=2;" edge="1" parent="1" source="k6I1WOAuYv6A5rx1H5Q7-44" target="k6I1WOAuYv6A5rx1H5Q7-43">
          <mxGeometry relative="1" as="geometry" />
        </mxCell>
        <mxCell id="k6I1WOAuYv6A5rx1H5Q7-39" value="Iceberg Catalog&lt;div&gt;&amp;nbsp;(Postgres)&lt;/div&gt;" style="sketch=1;pointerEvents=1;shadow=0;dashed=0;html=1;strokeColor=none;labelPosition=center;verticalLabelPosition=bottom;verticalAlign=top;outlineConnect=0;align=center;shape=mxgraph.office.concepts.node_generic;fillColor=#2072B8;fontFamily=Tahoma;curveFitting=1;jiggle=2;" parent="1" vertex="1">
          <mxGeometry x="327.5" y="450" width="46" height="52" as="geometry" />
        </mxCell>
        <mxCell id="Yegjp9foNtBewu_qM6rg-8" style="rounded=0;orthogonalLoop=1;jettySize=auto;html=1;sketch=1;curveFitting=1;jiggle=2;" edge="1" parent="1" source="k6I1WOAuYv6A5rx1H5Q7-44" target="k6I1WOAuYv6A5rx1H5Q7-43">
          <mxGeometry relative="1" as="geometry" />
        </mxCell>
        <mxCell id="k6I1WOAuYv6A5rx1H5Q7-44" value="Jupyter Notebook" style="sketch=1;pointerEvents=1;shadow=0;dashed=0;html=1;strokeColor=none;labelPosition=center;verticalLabelPosition=top;verticalAlign=bottom;outlineConnect=0;align=center;shape=mxgraph.office.concepts.node_generic;fillColor=#2072B8;fontFamily=Tahoma;spacingLeft=5;curveFitting=1;jiggle=2;" parent="1" vertex="1">
          <mxGeometry x="384" y="230" width="46" height="52" as="geometry" />
        </mxCell>
        <mxCell id="k6I1WOAuYv6A5rx1H5Q7-45" value="&amp;nbsp;- CephFS share" style="sketch=1;aspect=fixed;pointerEvents=1;shadow=0;dashed=0;html=1;strokeColor=#23445d;labelPosition=right;verticalLabelPosition=middle;verticalAlign=middle;align=left;fillColor=#bac8d3;shape=mxgraph.mscae.enterprise.shared_folder;fontFamily=Tahoma;curveFitting=1;jiggle=2;" parent="1" vertex="1">
          <mxGeometry x="621.89" y="348.5" width="33.11" height="38.5" as="geometry" />
        </mxCell>
        <mxCell id="k6I1WOAuYv6A5rx1H5Q7-58" style="rounded=0;orthogonalLoop=1;jettySize=auto;html=1;sketch=1;curveFitting=1;jiggle=2;" parent="1" source="k6I1WOAuYv6A5rx1H5Q7-57" target="k6I1WOAuYv6A5rx1H5Q7-43" edge="1">
          <mxGeometry relative="1" as="geometry" />
        </mxCell>
        <mxCell id="k6I1WOAuYv6A5rx1H5Q7-57" value="Apache Superset" style="sketch=1;pointerEvents=1;shadow=0;dashed=0;html=1;strokeColor=none;labelPosition=center;verticalLabelPosition=top;verticalAlign=bottom;outlineConnect=0;align=center;shape=mxgraph.office.concepts.node_generic;fillColor=#2072B8;fontFamily=Tahoma;spacingLeft=5;curveFitting=1;jiggle=2;" parent="1" vertex="1">
          <mxGeometry x="250" y="230" width="46" height="52" as="geometry" />
        </mxCell>
        <mxCell id="Yegjp9foNtBewu_qM6rg-5" style="rounded=0;orthogonalLoop=1;jettySize=auto;html=1;entryX=0.5;entryY=0.07;entryDx=0;entryDy=0;entryPerimeter=0;sketch=1;curveFitting=1;jiggle=2;" edge="1" parent="1" source="k6I1WOAuYv6A5rx1H5Q7-44" target="k6I1WOAuYv6A5rx1H5Q7-33">
          <mxGeometry relative="1" as="geometry" />
        </mxCell>
        <mxCell id="Yegjp9foNtBewu_qM6rg-9" value="&lt;h1 style=&quot;margin-top: 0px;&quot;&gt;&lt;font style=&quot;font-size: 16px;&quot;&gt;Shared Filesystem&lt;/font&gt;&lt;/h1&gt;&lt;p&gt;&amp;nbsp;- Working directories for Jupyter notebooks&lt;/p&gt;&lt;p&gt;&lt;span style=&quot;background-color: initial;&quot;&gt;&amp;nbsp;- Postgres database data&lt;/span&gt;&lt;/p&gt;&lt;p&gt;&amp;nbsp;- InfluxDB backup&lt;/p&gt;&lt;p&gt;&amp;nbsp; - Opralog backup&lt;/p&gt;&lt;p&gt;&lt;span style=&quot;background-color: initial;&quot;&gt;&lt;br&gt;&lt;/span&gt;&lt;/p&gt;&lt;p&gt;&lt;span style=&quot;background-color: initial;&quot;&gt;&lt;br&gt;&lt;/span&gt;&lt;/p&gt;" style="text;html=1;whiteSpace=wrap;overflow=hidden;rounded=1;fillColor=#fff2cc;strokeColor=#d6b656;sketch=1;curveFitting=1;jiggle=2;" vertex="1" parent="1">
          <mxGeometry x="610" y="460" width="190" height="160" as="geometry" />
        </mxCell>
        <mxCell id="k6I1WOAuYv6A5rx1H5Q7-35" value="S3&amp;nbsp;&lt;span style=&quot;background-color: initial;&quot;&gt;Object Store (Echo)&lt;/span&gt;" style="sketch=1;pointerEvents=1;shadow=0;dashed=0;html=1;strokeColor=none;labelPosition=center;verticalLabelPosition=bottom;verticalAlign=top;outlineConnect=0;align=center;shape=mxgraph.office.concepts.node_generic;fillColor=#0178D4;fontFamily=Tahoma;curveFitting=1;jiggle=2;" parent="1" vertex="1">
          <mxGeometry x="220" y="450" width="50" height="52" as="geometry" />
        </mxCell>
        <mxCell id="Yegjp9foNtBewu_qM6rg-11" value="" style="rounded=0;orthogonalLoop=1;jettySize=auto;html=1;sketch=1;curveFitting=1;jiggle=2;" edge="1" parent="1" source="k6I1WOAuYv6A5rx1H5Q7-39" target="Yegjp9foNtBewu_qM6rg-10">
          <mxGeometry relative="1" as="geometry">
            <mxPoint x="374" y="476" as="sourcePoint" />
            <mxPoint x="520" y="477" as="targetPoint" />
          </mxGeometry>
        </mxCell>
        <mxCell id="Yegjp9foNtBewu_qM6rg-10" value="Apache Iceberg" style="rounded=1;whiteSpace=wrap;html=1;fillColor=#FFE599;strokeColor=#C73500;labelBackgroundColor=none;sketch=1;curveFitting=1;jiggle=2;fontColor=#000000;labelPosition=center;verticalLabelPosition=bottom;align=center;verticalAlign=top;fontSize=16;fillStyle=dashed;" vertex="1" parent="1">
          <mxGeometry x="180" y="440" width="234" height="100" as="geometry" />
        </mxCell>
        <mxCell id="Yegjp9foNtBewu_qM6rg-13" value="&lt;h1 style=&quot;margin-top: 0px;&quot;&gt;&lt;font style=&quot;font-size: 16px;&quot;&gt;Iceberg&lt;/font&gt;&lt;/h1&gt;&lt;p&gt;&amp;nbsp;- Combination of object store &amp;amp; catalog present database-table-like interface&lt;/p&gt;&lt;p&gt;&amp;nbsp; - Query engines talk to one data store.&amp;nbsp;&lt;/p&gt;&lt;p&gt;&lt;span style=&quot;background-color: initial;&quot;&gt;&lt;br&gt;&lt;/span&gt;&lt;/p&gt;" style="text;html=1;whiteSpace=wrap;overflow=hidden;rounded=1;fillColor=#fff2cc;strokeColor=#d6b656;sketch=1;curveFitting=1;jiggle=2;" vertex="1" parent="1">
          <mxGeometry x="20" y="530" width="190" height="160" as="geometry" />
        </mxCell>
        <mxCell id="Yegjp9foNtBewu_qM6rg-14" value="&lt;h1 style=&quot;margin-top: 0px;&quot;&gt;&lt;font style=&quot;font-size: 16px;&quot;&gt;Superset&lt;/font&gt;&lt;/h1&gt;&lt;p&gt;&amp;nbsp;- Charting/dashboarding&lt;/p&gt;&lt;p&gt;&amp;nbsp;- Much like Grafana&lt;/p&gt;" style="text;html=1;whiteSpace=wrap;overflow=hidden;rounded=1;fillColor=#fff2cc;strokeColor=#d6b656;sketch=1;curveFitting=1;jiggle=2;" vertex="1" parent="1">
          <mxGeometry x="20" y="160" width="160" height="160" as="geometry" />
        </mxCell>
        <mxCell id="Yegjp9foNtBewu_qM6rg-12" value="Traefik (reverse proxy)" style="sketch=1;pointerEvents=1;shadow=0;dashed=0;html=1;strokeColor=none;labelPosition=center;verticalLabelPosition=top;verticalAlign=bottom;outlineConnect=0;align=center;shape=mxgraph.office.concepts.node_generic;fillColor=#2072B8;fontFamily=Tahoma;spacingLeft=5;curveFitting=1;jiggle=2;" vertex="1" parent="1">
          <mxGeometry x="362" y="130" width="46" height="52" as="geometry" />
        </mxCell>
        <mxCell id="Yegjp9foNtBewu_qM6rg-24" value="SCD Cloud" style="rounded=1;whiteSpace=wrap;html=1;sketch=1;curveFitting=1;jiggle=2;fillColor=#fad7ac;strokeColor=#b46504;" vertex="1" parent="1">
          <mxGeometry x="535" y="20" width="265" height="60" as="geometry" />
        </mxCell>
      </root>
    </mxGraphModel>
  </diagram>
</mxfile>
